<svg aria-hidden="true" style="width:0;height:0;position:absolute;overflow:hidden" xmlns="http://www.w3.org/2000/svg"><defs><symbol id="icon-menu" viewBox="0 0 32 32"><path d="M4 8c0-.736.597-1.333 1.333-1.333h21.333a1.333 1.333 0 0 1 0 2.666H5.333A1.333 1.333 0 0 1 4 8zM4 16c0-.736.597-1.333 1.333-1.333h21.333a1.333 1.333 0 0 1 0 2.666H5.333A1.333 1.333 0 0 1 4 16zM4 24c0-.736.597-1.333 1.333-1.333h21.333a1.333 1.333 0 0 1 0 2.666H5.333A1.333 1.333 0 0 1 4 24z"/></symbol><symbol id="logo" viewBox="0 0 120 32"><path d="m6.684 1.353-2.191.019-.003 4.033-.001.588-.002 3.22 1.574-.091c1.316-.075 2.633-.147 3.949-.217l-.002 1.327a827.453 827.453 0 0 0-5.522.353l-.002 2.184-.001.476v.728l-.001 1.4-.004 5.489c-1.144.152-2.288.309-3.431.471V0h11.865l-.003 1.305c-2.075.015-4.15.032-6.225.049zM20.105 6.612l-1.373.046-.007 2.397-.001.381-.005 1.943.94-.054c.984-.056 1.968-.111 2.952-.163l-.004 1.229c-.966.057-1.931.116-2.896.177l-.997.064-.004 1.199-.001.291-.001.49-.003.908-.007 2.506c.445-.041.89-.082 1.334-.121 1.523-.137 3.046-.266 4.57-.388l-.004 1.218c-2.903.247-5.805.524-8.704.831a4851.459 4851.459 0 0 1 .012-4.737l.002-.793.012-4.865.009-3.705c2.915-.086 5.831-.164 8.748-.233l-.004 1.235c-1.524.045-3.048.092-4.572.143zM29.172 18.387l.011-3.599.019-6.125.011-3.513c.928-.019 1.857-.038 2.786-.055l-.036 11.896c2.492-.158 4.985-.295 7.479-.412l-.003 1.169c-3.424.171-6.846.384-10.266.638zM47.337 6.03c-1.412.016-2.073.418-2.846 1.288-.755.837-1.172 2.136-1.177 3.905-.004 1.803.408 3.08 1.16 3.879.771.833 1.467 1.202 2.995 1.157 1.339-.039 2.168-.468 2.962-1.316.736-.815.964-2.056.966-3.865.002-1.76-.204-2.98-.956-3.804-.753-.84-1.637-1.258-3.106-1.243zm-.002 11.396c-2.206.071-3.562-.465-4.955-1.572-1.43-1.137-2.121-2.678-2.117-4.612.005-1.867.724-3.437 2.176-4.603 1.415-1.149 2.753-1.739 4.899-1.758 2.146-.018 3.501.529 4.931 1.609 1.467 1.129 2.201 2.65 2.199 4.534-.003 1.836-.7 3.352-2.116 4.532-1.378 1.181-2.755 1.8-5.019 1.87zM69.894 17.317a1243.269 1243.269 0 0 0-8.885-10.145l.001 6.837v2.916l-1.302.001.001-2.916.001-6.044.001-3.143c.897-.001 1.794 0 2.692.001 2.355 2.709 4.712 5.428 7.072 8.184l-.008-5.749-.003-2.41 1.412.009a21804937.069 21804937.069 0 0 1 .018 12.482l-1-.023zM76.396 17.507l-.007-3.46-.012-5.832-.007-3.311c.929.01 1.858.02 2.787.032l.008 3.333.014 5.87.008 3.482c-.93-.041-1.86-.078-2.79-.113zM95.097 16.827c-.488.525-1.144.911-1.954 1.163-.827.25-1.768.336-2.821.261-1.243-.087-2.318-.362-3.204-.806-.905-.445-1.547-1.003-1.945-1.681-.397-.661-.626-1.529-.553-2.536.03-.408.074-7.12.071-8.215.922.015 1.845.03 2.767.047l.01 3.315.011 3.808c.002.646.003 1.207.024 1.684.019.46.04.801.097 1.042.114.482.379.887.908 1.276s1.282.624 2.261.689c.754.049 1.449-.023 2.051-.243.639-.216 1.089-.499 1.352-.847.3-.363.506-.735.561-1.098.074-.432.184-1.108.182-2.053l-.014-4.236-.01-3.186 1.298.03.011 3.362.013 4.172a13.436 13.436 0 0 1-.199 2.415c-.111.608-.486 1.161-.917 1.637zM120.32 21.334a444.7 444.7 0 0 0-4.735-.642 225.226 225.226 0 0 0-4.082-4.871 236.506 236.506 0 0 0-5.267-5.647c-.32.28-.639.559-.959.836a1324973.92 1324973.92 0 0 0 .022 8.473 397.2 397.2 0 0 0-3.443-.348l-.014-5.086-.025-9.093-.014-4.957h3.447l.013 5.048.01 4.158c1.696-1.441 8.556-7.632 10.238-9.206h1.897c-1.389 1.367-7.673 7.271-8.641 8.107a233.642 233.642 0 0 1 6.92 7.68 578.76 578.76 0 0 1 4.633 5.547zM26.429 31.391c-.408-.412-.611-.949-.611-1.6 0-.43.096-.836.281-1.218s.45-.675.791-.866a2.236 2.236 0 0 1 1.102-.275 2 2 0 0 1 .905.203c.258.131.455.275.623.472l.018.126-.281.275c-.156-.221-.222-.292-.299-.352a1.377 1.377 0 0 0-.875-.299c-.395 0-.701.155-.934.472-.228.322-.354.794-.354 1.433 0 .603.132 1.045.384 1.343.258.305.569.448.947.448.197 0 .407-.047.629-.149.162-.078.3-.197.503-.501l.329.328c-.473.537-.977.77-1.588.77-.629 0-1.156-.203-1.569-.609zM38.921 32v-4.568h.887v4.15h2.378V32h-3.265zM51.51 32v-4.568h.887V32h-.887zM65.339 32l-2.822-3.702v3.595h-.413v-4.461h.857l2.246 2.991v-2.991h.45V32h-.317zM75.369 32v-4.568h.887V32h-.887zM86.425 31.391c-.408-.412-.611-.949-.611-1.6 0-.43.096-.836.281-1.218a1.93 1.93 0 0 1 .791-.866 2.236 2.236 0 0 1 1.102-.275 2 2 0 0 1 .905.203c.258.131.456.275.623.472l.018.126-.281.275c-.155-.221-.221-.292-.3-.352a1.377 1.377 0 0 0-.875-.299c-.396 0-.701.155-.935.472-.228.322-.354.794-.354 1.433 0 .603.132 1.045.383 1.343.258.305.57.448.947.448.197 0 .407-.047.629-.149.162-.078.3-.197.503-.501l.33.328c-.473.537-.977.77-1.588.77-.629 0-1.156-.203-1.569-.609z"/></symbol><symbol id="icon-arrow-narrow-right" viewBox="0 0 32 32"><path d="M5.333 16c0-.736.597-1.333 1.333-1.333h18.667a1.333 1.333 0 0 1 0 2.666H6.666A1.333 1.333 0 0 1 5.333 16z"/><path d="M26.276 15.058c.241.241.39.574.39.942s-.149.701-.39.942l-5.333 5.333a1.332 1.332 0 0 1-2.308-.909c0-.385.163-.731.424-.975l.001-.001 5.333-5.333c.241-.241.574-.39.942-.39s.701.149.942.39z"/><path d="M19.058 9.724c.241-.241.574-.39.942-.39s.701.149.942.39l5.333 5.333a1.333 1.333 0 0 1-1.885 1.883l.001.001-5.333-5.333c-.241-.241-.39-.574-.39-.942s.149-.701.39-.942z"/></symbol><symbol id="icon-btn_arr_b" viewBox="0 0 48 32"><path d="M0 16a3 3 0 0 1 3-3h42a3 3 0 1 1 0 6H3a3 3 0 0 1-3-3z"/><path d="M47.121 13.879a3 3 0 0 1 0 4.243l-12 12a3 3 0 1 1-4.243-4.243l12-12a2.998 2.998 0 0 1 4.242 0z"/><path d="M30.879 1.879a3 3 0 0 1 4.243 0l12 12a3 3 0 1 1-4.242 4.243l-12-12a3 3 0 0 1 0-4.243z"/></symbol></defs></svg>