<svg xmlns="http://www.w3.org/2000/svg" aria-hidden="true" style="position:absolute;width:0;height:0;overflow:hidden"><defs><symbol id="icon-menu" v    iewBox="0 0 41 32"><path d="M.267 2.662c0-1.229.994-2.224 2.224-2.224h35.567l.069-.001a2.224 2.224 0 0 1 0 4.448l-.072-.001h.004H2.492A2.224 2.224 0 0 1 .268 2.663zM.267 16c0-1.229.994-2.224 2.224-2.224h35.567l.069-.001a2.224 2.224 0 0 1 0 4.448l-.072-.001h.004H2.492a2.224 2.224 0 0 1-2.224-2.221zm0 13.338c0-1.229.994-2.224 2.224-2.224h35.567a2.225 2.225 0 0 1 .004 4.446H2.491a2.224 2.224 0 0 1-2.224-2.221z"/></symbol><symbol id="icon-arrow-right" viewBox="0 0 48 32"><path d="M0 16.028a3.002 3.002 0 0 1 3.001-3.001h42.012a3.002 3.002 0 0 1 0 6.002H3.001A3.002 3.002 0 0 1 0 16.028z"/><path d="M47.134 13.907c.542.543.878 1.293.878 2.121s-.335 1.578-.878 2.121L35.131 30.152a3.002 3.002 0 0 1-4.24-4.243l-.002.002 12.003-12.003c.543-.542 1.293-.878 2.121-.878s1.578.335 2.121.878z"/><path d="M30.889 1.904c.543-.542 1.293-.878 2.121-.878s1.578.335 2.121.878l12.003 12.003a3.002 3.002 0 0 1-4.243 4.24l.002.002L30.89 6.146c-.542-.543-.878-1.293-.878-2.121s.335-1.578.878-2.121z"/></symbol><symbol id="icon-arrow-left" viewBox="0 0 48 32"><path d="M0 16.028a3.002 3.002 0 0 1 3.001-3.001h42.012a3.002 3.002 0 0 1 0 6.002H3.001A3.002 3.002 0 0 1 0 16.028z"/><path d="M.88 13.907c.543-.542 1.293-.878 2.121-.878s1.578.335 2.121.878L17.125 25.91a3.002 3.002 0 0 1-4.243 4.24l.002.002L.881 18.149c-.542-.543-.878-1.293-.878-2.121s.335-1.578.878-2.121z"/><path d="M17.125 1.904c.542.543.878 1.293.878 2.121s-.335 1.578-.878 2.121L5.122 18.149a3.002 3.002 0 0 1-4.24-4.243l-.002.002L12.883 1.905c.543-.542 1.293-.878 2.121-.878s1.578.335 2.121.878z"/></symbol><symbol id="icon-facebook" viewBox="0 0 32 32"><path d="M12 10.667a8 8 0 0 1 8-8h4c.736 0 1.333.597 1.333 1.333v5.333c0 .736-.597 1.333-1.333 1.333h-4v1.333h4a1.333 1.333 0 0 1 1.291 1.667l.002-.009-1.333 5.333a1.336 1.336 0 0 1-1.293 1.009H20v8c0 .736-.597 1.333-1.333 1.333h-5.333a1.333 1.333 0 0 1-1.333-1.333v-8H9.334a1.333 1.333 0 0 1-1.333-1.333v-5.333c0-.736.597-1.333 1.333-1.333h2.667v-1.333zm-1.333 4v2.667h2.667c.736 0 1.333.597 1.333 1.333v8h2.667v-8c0-.736.597-1.333 1.333-1.333h2.959l.668-2.667h-3.627a1.333 1.333 0 0 1-1.333-1.333v-2.667A2.668 2.668 0 0 1 20.001 8h2.667V5.333h-2.667a5.333 5.333 0 0 0-5.333 5.333v2.667c0 .736-.597 1.333-1.333 1.333h-2.667z"/></symbol><symbol id="icon-instagram" viewBox="0 0 32 32"><path d="M4 10.667A6.668 6.668 0 0 1 10.667 4h10.667a6.668 6.668 0 0 1 6.667 6.667v10.667a6.668 6.668 0 0 1-6.667 6.667H10.667A6.667 6.667 0 0 1 4 21.334V10.667zm6.667-4a4 4 0 0 0-4 4v10.667a4 4 0 0 0 4 4h10.667a4 4 0 0 0 4-4V10.667a4 4 0 0 0-4-4H10.667z"/><path d="M16 13.333a2.667 2.667 0 1 0 0 5.334 2.667 2.667 0 1 0 0-5.334zM10.667 16a5.333 5.333 0 1 1 10.666 0 5.333 5.333 0 1 1-10.666 0zm11.334-7.332a1.333 1.333 0 1 1-1.333 1.335v-.004c0-.736.597-1.333 1.331-1.333z"/></symbol><symbol id="icon-en" viewBox="0 0 36 32"><path fill="#fff" d="M16.003-.003h3.658c8.838 0 16.003 7.165 16.003 16.003s-7.165 16.003-16.003 16.003h-3.658C7.165 32.003 0 24.838 0 16S7.165-.003 16.003-.003z" style="fill:var(--color1, #fff)"/><path fill="#171717" d="M12.124 20.115v-7.98h5.003v1.036h-3.8v2.432h3.539v1.032h-3.539v2.442h3.846v1.037h-5.05zm7.683-3.554v3.554h-1.165v-5.986h1.118v.975h.073c.138-.317.354-.572.647-.764.296-.192.669-.289 1.118-.289.408 0 .765.086 1.072.258.306.168.544.421.713.755s.253.75.253 1.244v3.807h-1.165v-3.667c0-.433-.113-.773-.339-1.017-.226-.247-.537-.37-.931-.37-.271 0-.511.059-.721.176-.212.122-.38.297-.491.507l-.003.007a1.707 1.707 0 0 0-.179.811z" style="fill:var(--color2, #171717)"/></symbol><symbol id="icon-moon" viewBox="0 0 32 32"><path d="M13.558 5.616c-4.752 1.151-8.226 5.368-8.226 10.396 0 5.9 4.783 10.682 10.682 10.682 3.386 0 6.405-1.576 8.362-4.034l.017-.022c-.31.03-.671.047-1.036.047-6.267 0-11.348-5.08-11.348-11.348 0-2.109.575-4.083 1.577-5.775l-.029.053zm2.627-2.947h.357a1.335 1.335 0 0 1 .907 2.314l-.001.001a8.674 8.674 0 0 0 9.222 14.377l-.057.021a1.336 1.336 0 0 1 1.732 1.758l.003-.009c-2.063 4.871-6.803 8.225-12.326 8.225-7.372 0-13.348-5.976-13.348-13.348 0-7.371 5.974-13.346 13.344-13.348.057 0 .113.005.168.01z"/></symbol></defs></svg>